<svg xmlns="http://www.w3.org/2000/svg" width="400" height="300" viewBox="0 0 400 300">
    <defs>
      <linearGradient id="bg" x1="0%" y1="0%" x2="100%" y2="100%">
        <stop offset="0%" stop-color="#FDF8F3"/>
        <stop offset="55%" stop-color="#B8CEB5"/>
        <stop offset="100%" stop-color="undefined"/>
      </linearGradient>
      <radialGradient id="vig" cx="50%" cy="45%" r="70%">
    <stop offset="0%" stop-color="white" stop-opacity="0"/>
    <stop offset="100%" stop-color="#1B4332" stop-opacity="0.08"/>
  </radialGradient>
    </defs>
    <rect width="100%" height="100%" fill="url(#bg)"/>
    <ellipse cx="264" cy="198" rx="60" ry="36" fill="#B8CEB5" opacity="0.18" transform="rotate(136 264 198)"/>
<ellipse cx="231.99999999999997" cy="222" rx="92" ry="54" fill="undefined" opacity="0.24" transform="rotate(159 231.99999999999997 222)"/>
<ellipse cx="200" cy="245.99999999999997" rx="124" ry="36" fill="#B8CEB5" opacity="0.3" transform="rotate(182 200 245.99999999999997)"/>
<ellipse cx="168" cy="30" rx="60" ry="54" fill="undefined" opacity="0.18" transform="rotate(205 168 30)"/>
<ellipse cx="136" cy="54" rx="92" ry="36" fill="#B8CEB5" opacity="0.24" transform="rotate(228 136 54)"/>
    <rect width="100%" height="100%" fill="url(#vig)"/>
    <g transform="translate(136,0) rotate(136) scale(0.8)" opacity="0.2">
    <path d="M0 0 C 8 -14, 22 -10, 18 2 C 12 12, 0 16, 0 16 C 0 16, -12 12, -18 2 C -22 -10, -8 -14, 0 0 Z" fill="#2D6A4F"/>
  </g>
<g transform="translate(272,102.00000000000001) rotate(177) scale(1.2000000000000002)" opacity="0.30000000000000004">
    <path d="M0 0 C 8 -14, 22 -10, 18 2 C 12 12, 0 16, 0 16 C 0 16, -12 12, -18 2 C -22 -10, -8 -14, 0 0 Z" fill="#2D6A4F"/>
  </g>
<g transform="translate(68,204.00000000000003) rotate(218) scale(1.6)" opacity="0.2">
    <path d="M0 0 C 8 -14, 22 -10, 18 2 C 12 12, 0 16, 0 16 C 0 16, -12 12, -18 2 C -22 -10, -8 -14, 0 0 Z" fill="#2D6A4F"/>
  </g>
<g transform="translate(204,51.00000000000001) rotate(259) scale(0.8)" opacity="0.30000000000000004">
    <path d="M0 0 C 8 -14, 22 -10, 18 2 C 12 12, 0 16, 0 16 C 0 16, -12 12, -18 2 C -22 -10, -8 -14, 0 0 Z" fill="#2D6A4F"/>
  </g>
<g transform="translate(0,153) rotate(300) scale(1.2000000000000002)" opacity="0.2">
    <path d="M0 0 C 8 -14, 22 -10, 18 2 C 12 12, 0 16, 0 16 C 0 16, -12 12, -18 2 C -22 -10, -8 -14, 0 0 Z" fill="#2D6A4F"/>
  </g>
<g transform="translate(136,0) rotate(341) scale(1.6)" opacity="0.30000000000000004">
    <path d="M0 0 C 8 -14, 22 -10, 18 2 C 12 12, 0 16, 0 16 C 0 16, -12 12, -18 2 C -22 -10, -8 -14, 0 0 Z" fill="#2D6A4F"/>
  </g>
<polygon points="248,48 249.41068460550193,52.058359213500125 253.70633909777092,52.14589803375031 250.28253563910837,54.74164078649987 251.52671151375483,58.85410196624969 248,56.4 244.47328848624517,58.85410196624969 245.71746436089163,54.74164078649987 242.29366090222908,52.14589803375031 246.58931539449807,52.058359213500125" fill="#CD6A45" opacity="0.35"/>
<polygon points="192,20 194.35114100916988,26.76393202250021 201.51056516295154,26.909830056250527 195.80422606518061,31.23606797749979 197.87785252292474,38.09016994374947 192,34 186.12214747707526,38.09016994374947 188.19577393481939,31.23606797749979 182.48943483704846,26.909830056250527 189.64885899083012,26.76393202250021" fill="#CD6A45" opacity="0.35"/>
<polygon points="136,-8 139.29159741283786,1.469504831500294 149.31479122813215,1.6737620787507366 141.32591649125285,7.730495168499706 144.22899353209462,17.326237921249266 136,11.600000000000001 127.77100646790538,17.326237921249266 130.67408350874715,7.730495168499706 122.68520877186785,1.6737620787507383 132.70840258716214,1.469504831500294" fill="#CD6A45" opacity="0.35"/>
<polygon points="80,246 81.41068460550194,250.05835921350013 85.70633909777092,250.1458980337503 82.28253563910837,252.7416407864999 83.52671151375483,256.8541019662497 80,254.4 76.47328848624517,256.8541019662497 77.71746436089163,252.7416407864999 74.29366090222908,250.1458980337503 78.58931539449806,250.05835921350013" fill="#CD6A45" opacity="0.35"/>
    
  </svg>