<svg xmlns="http://www.w3.org/2000/svg" width="400" height="300" viewBox="0 0 400 300">
    <defs>
      <linearGradient id="bg" x1="0%" y1="0%" x2="100%" y2="100%">
        <stop offset="0%" stop-color="#E8DDD4"/>
        <stop offset="55%" stop-color="#B8CEB5"/>
        <stop offset="100%" stop-color="undefined"/>
      </linearGradient>
      <radialGradient id="vig" cx="50%" cy="45%" r="70%">
    <stop offset="0%" stop-color="white" stop-opacity="0"/>
    <stop offset="100%" stop-color="#1B4332" stop-opacity="0.08"/>
  </radialGradient>
    </defs>
    <rect width="100%" height="100%" fill="url(#bg)"/>
    <ellipse cx="212" cy="39" rx="60" ry="36" fill="#B8CEB5" opacity="0.18" transform="rotate(153 212 39)"/>
<ellipse cx="56.00000000000001" cy="245.99999999999997" rx="92" ry="54" fill="undefined" opacity="0.24" transform="rotate(176 56.00000000000001 245.99999999999997)"/>
<ellipse cx="220.00000000000003" cy="213" rx="124" ry="36" fill="#B8CEB5" opacity="0.3" transform="rotate(199 220.00000000000003 213)"/>
<ellipse cx="64" cy="180" rx="60" ry="54" fill="undefined" opacity="0.18" transform="rotate(222 64 180)"/>
<ellipse cx="227.99999999999997" cy="147" rx="92" ry="36" fill="#B8CEB5" opacity="0.24" transform="rotate(245 227.99999999999997 147)"/>
    <rect width="100%" height="100%" fill="url(#vig)"/>
    <g transform="translate(68,0) rotate(153) scale(0.8)" opacity="0.2">
    <path d="M0 0 C 8 -14, 22 -10, 18 2 C 12 12, 0 16, 0 16 C 0 16, -12 12, -18 2 C -22 -10, -8 -14, 0 0 Z" fill="#2D6A4F"/>
  </g>
<g transform="translate(136,51.00000000000001) rotate(194) scale(1.2000000000000002)" opacity="0.30000000000000004">
    <path d="M0 0 C 8 -14, 22 -10, 18 2 C 12 12, 0 16, 0 16 C 0 16, -12 12, -18 2 C -22 -10, -8 -14, 0 0 Z" fill="#2D6A4F"/>
  </g>
<g transform="translate(204,102.00000000000001) rotate(235) scale(1.6)" opacity="0.2">
    <path d="M0 0 C 8 -14, 22 -10, 18 2 C 12 12, 0 16, 0 16 C 0 16, -12 12, -18 2 C -22 -10, -8 -14, 0 0 Z" fill="#2D6A4F"/>
  </g>
<g transform="translate(272,153) rotate(276) scale(0.8)" opacity="0.30000000000000004">
    <path d="M0 0 C 8 -14, 22 -10, 18 2 C 12 12, 0 16, 0 16 C 0 16, -12 12, -18 2 C -22 -10, -8 -14, 0 0 Z" fill="#2D6A4F"/>
  </g>
<g transform="translate(0,204.00000000000003) rotate(317) scale(1.2000000000000002)" opacity="0.2">
    <path d="M0 0 C 8 -14, 22 -10, 18 2 C 12 12, 0 16, 0 16 C 0 16, -12 12, -18 2 C -22 -10, -8 -14, 0 0 Z" fill="#2D6A4F"/>
  </g>
<g transform="translate(68,0) rotate(358) scale(1.6)" opacity="0.30000000000000004">
    <path d="M0 0 C 8 -14, 22 -10, 18 2 C 12 12, 0 16, 0 16 C 0 16, -12 12, -18 2 C -22 -10, -8 -14, 0 0 Z" fill="#2D6A4F"/>
  </g>
<polygon points="144,21 145.41068460550193,25.058359213500125 149.70633909777092,25.145898033750317 146.28253563910837,27.741640786499875 147.52671151375483,31.854101966249686 144,29.4 140.47328848624517,31.854101966249686 141.71746436089163,27.741640786499875 138.29366090222908,25.145898033750317 142.58931539449807,25.058359213500125" fill="#CD6A45" opacity="0.35"/>
<polygon points="36,-10 38.35114100916989,-3.23606797749979 45.510565162951536,-3.090169943749474 39.804226065180615,1.2360679774997896 41.877852522924734,8.090169943749475 36,4 30.12214747707527,8.090169943749475 32.195773934819385,1.23606797749979 26.489434837048464,-3.0901699437494727 33.64885899083011,-3.2360679774997894" fill="#CD6A45" opacity="0.35"/>
<polygon points="288,229.00000000000003 291.29159741283786,238.46950483150033 301.31479122813215,238.67376207875077 293.3259164912529,244.73049516849974 296.22899353209465,254.3262379212493 288,248.60000000000002 279.77100646790535,254.3262379212493 282.6740835087471,244.73049516849974 274.68520877186785,238.67376207875077 284.70840258716214,238.46950483150033" fill="#CD6A45" opacity="0.35"/>
<polygon points="180,210 181.41068460550193,214.05835921350013 185.70633909777092,214.1458980337503 182.28253563910837,216.7416407864999 183.52671151375483,220.8541019662497 180,218.4 176.47328848624517,220.8541019662497 177.71746436089163,216.7416407864999 174.29366090222908,214.1458980337503 178.58931539449807,214.05835921350013" fill="#CD6A45" opacity="0.35"/>
    
  </svg>