<svg xmlns="http://www.w3.org/2000/svg" width="400" height="300" viewBox="0 0 400 300">
    <defs>
      <linearGradient id="bg" x1="0%" y1="0%" x2="100%" y2="100%">
        <stop offset="0%" stop-color="#E8DDD4"/>
        <stop offset="55%" stop-color="#B8CEB5"/>
        <stop offset="100%" stop-color="undefined"/>
      </linearGradient>
      <radialGradient id="vig" cx="50%" cy="45%" r="70%">
    <stop offset="0%" stop-color="white" stop-opacity="0"/>
    <stop offset="100%" stop-color="#1B4332" stop-opacity="0.08"/>
  </radialGradient>
    </defs>
    <rect width="100%" height="100%" fill="url(#bg)"/>
    <ellipse cx="100" cy="195" rx="60" ry="36" fill="#B8CEB5" opacity="0.18" transform="rotate(85 100 195)"/>
<ellipse cx="120" cy="150" rx="92" ry="54" fill="undefined" opacity="0.24" transform="rotate(108 120 150)"/>
<ellipse cx="140" cy="105" rx="124" ry="36" fill="#B8CEB5" opacity="0.3" transform="rotate(131 140 105)"/>
<ellipse cx="160" cy="60" rx="60" ry="54" fill="undefined" opacity="0.18" transform="rotate(154 160 60)"/>
<ellipse cx="180" cy="255" rx="92" ry="36" fill="#B8CEB5" opacity="0.24" transform="rotate(177 180 255)"/>
    <rect width="100%" height="100%" fill="url(#vig)"/>
    <g transform="translate(0,0) rotate(85) scale(0.8)" opacity="0.2">
    <path d="M0 0 C 8 -14, 22 -10, 18 2 C 12 12, 0 16, 0 16 C 0 16, -12 12, -18 2 C -22 -10, -8 -14, 0 0 Z" fill="#2D6A4F"/>
  </g>
<g transform="translate(0,0) rotate(126) scale(1.2000000000000002)" opacity="0.30000000000000004">
    <path d="M0 0 C 8 -14, 22 -10, 18 2 C 12 12, 0 16, 0 16 C 0 16, -12 12, -18 2 C -22 -10, -8 -14, 0 0 Z" fill="#2D6A4F"/>
  </g>
<g transform="translate(0,0) rotate(167) scale(1.6)" opacity="0.2">
    <path d="M0 0 C 8 -14, 22 -10, 18 2 C 12 12, 0 16, 0 16 C 0 16, -12 12, -18 2 C -22 -10, -8 -14, 0 0 Z" fill="#2D6A4F"/>
  </g>
<g transform="translate(0,0) rotate(208) scale(0.8)" opacity="0.30000000000000004">
    <path d="M0 0 C 8 -14, 22 -10, 18 2 C 12 12, 0 16, 0 16 C 0 16, -12 12, -18 2 C -22 -10, -8 -14, 0 0 Z" fill="#2D6A4F"/>
  </g>
<g transform="translate(0,0) rotate(249) scale(1.2000000000000002)" opacity="0.2">
    <path d="M0 0 C 8 -14, 22 -10, 18 2 C 12 12, 0 16, 0 16 C 0 16, -12 12, -18 2 C -22 -10, -8 -14, 0 0 Z" fill="#2D6A4F"/>
  </g>
<g transform="translate(0,0) rotate(290) scale(1.6)" opacity="0.30000000000000004">
    <path d="M0 0 C 8 -14, 22 -10, 18 2 C 12 12, 0 16, 0 16 C 0 16, -12 12, -18 2 C -22 -10, -8 -14, 0 0 Z" fill="#2D6A4F"/>
  </g>
<polygon points="200,129 201.41068460550193,133.05835921350013 205.70633909777092,133.1458980337503 202.28253563910837,135.7416407864999 203.52671151375483,139.8541019662497 200,137.4 196.47328848624517,139.8541019662497 197.71746436089163,135.7416407864999 194.29366090222908,133.1458980337503 198.58931539449807,133.05835921350013" fill="#CD6A45" opacity="0.35"/>
<polygon points="300,110 302.3511410091699,116.76393202250021 309.51056516295154,116.90983005625053 303.8042260651806,121.23606797749979 305.87785252292474,128.0901699437495 300,124 294.12214747707526,128.0901699437495 296.1957739348194,121.23606797749979 290.48943483704846,116.90983005625053 297.6488589908301,116.76393202250021" fill="#CD6A45" opacity="0.35"/>
<polygon points="40,91 43.29159741283785,100.46950483150029 53.31479122813215,100.67376207875074 45.32591649125286,106.7304951684997 48.22899353209462,116.32623792124926 40,110.6 31.77100646790538,116.32623792124926 34.67408350874714,106.7304951684997 26.68520877186785,100.67376207875074 36.70840258716215,100.46950483150029" fill="#CD6A45" opacity="0.35"/>
<polygon points="140,84 141.41068460550193,88.05835921350013 145.70633909777092,88.14589803375031 142.28253563910837,90.74164078649987 143.52671151375483,94.85410196624969 140,92.4 136.47328848624517,94.85410196624969 137.71746436089163,90.74164078649987 134.29366090222908,88.14589803375031 138.58931539449807,88.05835921350013" fill="#CD6A45" opacity="0.35"/>
    
  </svg>