<svg xmlns="http://www.w3.org/2000/svg" width="400" height="300" viewBox="0 0 400 300">
    <defs>
      <linearGradient id="bg" x1="0%" y1="0%" x2="100%" y2="100%">
        <stop offset="0%" stop-color="#FDF8F3"/>
        <stop offset="55%" stop-color="#B8CEB5"/>
        <stop offset="100%" stop-color="undefined"/>
      </linearGradient>
      <radialGradient id="vig" cx="50%" cy="45%" r="70%">
    <stop offset="0%" stop-color="white" stop-opacity="0"/>
    <stop offset="100%" stop-color="#1B4332" stop-opacity="0.08"/>
  </radialGradient>
    </defs>
    <rect width="100%" height="100%" fill="url(#bg)"/>
    <ellipse cx="48" cy="36" rx="60" ry="36" fill="#B8CEB5" opacity="0.18" transform="rotate(102 48 36)"/>
<ellipse cx="264" cy="174" rx="92" ry="54" fill="undefined" opacity="0.24" transform="rotate(125 264 174)"/>
<ellipse cx="160" cy="72" rx="124" ry="36" fill="#B8CEB5" opacity="0.3" transform="rotate(148 160 72)"/>
<ellipse cx="56.00000000000001" cy="210" rx="60" ry="54" fill="undefined" opacity="0.18" transform="rotate(171 56.00000000000001 210)"/>
<ellipse cx="272" cy="108" rx="92" ry="36" fill="#B8CEB5" opacity="0.24" transform="rotate(194 272 108)"/>
    <rect width="100%" height="100%" fill="url(#vig)"/>
    <g transform="translate(272,0) rotate(102) scale(0.8)" opacity="0.2">
    <path d="M0 0 C 8 -14, 22 -10, 18 2 C 12 12, 0 16, 0 16 C 0 16, -12 12, -18 2 C -22 -10, -8 -14, 0 0 Z" fill="#2D6A4F"/>
  </g>
<g transform="translate(204,204.00000000000003) rotate(143) scale(1.2000000000000002)" opacity="0.30000000000000004">
    <path d="M0 0 C 8 -14, 22 -10, 18 2 C 12 12, 0 16, 0 16 C 0 16, -12 12, -18 2 C -22 -10, -8 -14, 0 0 Z" fill="#2D6A4F"/>
  </g>
<g transform="translate(136,153) rotate(184) scale(1.6)" opacity="0.2">
    <path d="M0 0 C 8 -14, 22 -10, 18 2 C 12 12, 0 16, 0 16 C 0 16, -12 12, -18 2 C -22 -10, -8 -14, 0 0 Z" fill="#2D6A4F"/>
  </g>
<g transform="translate(68,102.00000000000001) rotate(225) scale(0.8)" opacity="0.30000000000000004">
    <path d="M0 0 C 8 -14, 22 -10, 18 2 C 12 12, 0 16, 0 16 C 0 16, -12 12, -18 2 C -22 -10, -8 -14, 0 0 Z" fill="#2D6A4F"/>
  </g>
<g transform="translate(0,51.00000000000001) rotate(266) scale(1.2000000000000002)" opacity="0.2">
    <path d="M0 0 C 8 -14, 22 -10, 18 2 C 12 12, 0 16, 0 16 C 0 16, -12 12, -18 2 C -22 -10, -8 -14, 0 0 Z" fill="#2D6A4F"/>
  </g>
<g transform="translate(272,0) rotate(307) scale(1.6)" opacity="0.30000000000000004">
    <path d="M0 0 C 8 -14, 22 -10, 18 2 C 12 12, 0 16, 0 16 C 0 16, -12 12, -18 2 C -22 -10, -8 -14, 0 0 Z" fill="#2D6A4F"/>
  </g>
<polygon points="96,102 97.41068460550194,106.05835921350013 101.70633909777092,106.14589803375031 98.28253563910837,108.74164078649987 99.52671151375483,112.85410196624969 96,110.4 92.47328848624517,112.85410196624969 93.71746436089163,108.74164078649987 90.29366090222908,106.14589803375031 94.58931539449806,106.05835921350013" fill="#CD6A45" opacity="0.35"/>
<polygon points="144,80 146.35114100916988,86.76393202250021 153.51056516295154,86.90983005625053 147.80422606518061,91.23606797749979 149.87785252292474,98.09016994374947 144,94 138.12214747707526,98.09016994374947 140.19577393481939,91.23606797749979 134.48943483704846,86.90983005625053 141.64885899083012,86.76393202250021" fill="#CD6A45" opacity="0.35"/>
<polygon points="192,58 195.29159741283786,67.46950483150029 205.31479122813215,67.67376207875074 197.32591649125285,73.7304951684997 200.22899353209462,83.32623792124926 192,77.6 183.77100646790538,83.32623792124926 186.67408350874715,73.7304951684997 178.68520877186785,67.67376207875074 188.70840258716214,67.46950483150029" fill="#CD6A45" opacity="0.35"/>
<polygon points="240,48 241.41068460550193,52.058359213500125 245.70633909777092,52.14589803375031 242.28253563910837,54.74164078649987 243.52671151375483,58.85410196624969 240,56.4 236.47328848624517,58.85410196624969 237.71746436089163,54.74164078649987 234.29366090222908,52.14589803375031 238.58931539449807,52.058359213500125" fill="#CD6A45" opacity="0.35"/>
    
  </svg>