<svg xmlns="http://www.w3.org/2000/svg" width="400" height="300" viewBox="0 0 400 300">
    <defs>
      <linearGradient id="bg" x1="0%" y1="0%" x2="100%" y2="100%">
        <stop offset="0%" stop-color="#E8DDD4"/>
        <stop offset="55%" stop-color="#B8CEB5"/>
        <stop offset="100%" stop-color="undefined"/>
      </linearGradient>
      <radialGradient id="vig" cx="50%" cy="45%" r="70%">
    <stop offset="0%" stop-color="white" stop-opacity="0"/>
    <stop offset="100%" stop-color="#1B4332" stop-opacity="0.08"/>
  </radialGradient>
    </defs>
    <rect width="100%" height="100%" fill="url(#bg)"/>
    <ellipse cx="316" cy="117" rx="60" ry="36" fill="#B8CEB5" opacity="0.18" transform="rotate(119 316 117)"/>
<ellipse cx="88" cy="198" rx="92" ry="54" fill="undefined" opacity="0.24" transform="rotate(142 88 198)"/>
<ellipse cx="180" cy="39" rx="124" ry="36" fill="#B8CEB5" opacity="0.3" transform="rotate(165 180 39)"/>
<ellipse cx="272" cy="120" rx="60" ry="54" fill="undefined" opacity="0.18" transform="rotate(188 272 120)"/>
<ellipse cx="44" cy="201" rx="92" ry="36" fill="#B8CEB5" opacity="0.24" transform="rotate(211 44 201)"/>
    <rect width="100%" height="100%" fill="url(#vig)"/>
    <g transform="translate(204,0) rotate(119) scale(0.8)" opacity="0.2">
    <path d="M0 0 C 8 -14, 22 -10, 18 2 C 12 12, 0 16, 0 16 C 0 16, -12 12, -18 2 C -22 -10, -8 -14, 0 0 Z" fill="#2D6A4F"/>
  </g>
<g transform="translate(68,153) rotate(160) scale(1.2000000000000002)" opacity="0.30000000000000004">
    <path d="M0 0 C 8 -14, 22 -10, 18 2 C 12 12, 0 16, 0 16 C 0 16, -12 12, -18 2 C -22 -10, -8 -14, 0 0 Z" fill="#2D6A4F"/>
  </g>
<g transform="translate(272,51.00000000000001) rotate(201) scale(1.6)" opacity="0.2">
    <path d="M0 0 C 8 -14, 22 -10, 18 2 C 12 12, 0 16, 0 16 C 0 16, -12 12, -18 2 C -22 -10, -8 -14, 0 0 Z" fill="#2D6A4F"/>
  </g>
<g transform="translate(136,204.00000000000003) rotate(242) scale(0.8)" opacity="0.30000000000000004">
    <path d="M0 0 C 8 -14, 22 -10, 18 2 C 12 12, 0 16, 0 16 C 0 16, -12 12, -18 2 C -22 -10, -8 -14, 0 0 Z" fill="#2D6A4F"/>
  </g>
<g transform="translate(0,102.00000000000001) rotate(283) scale(1.2000000000000002)" opacity="0.2">
    <path d="M0 0 C 8 -14, 22 -10, 18 2 C 12 12, 0 16, 0 16 C 0 16, -12 12, -18 2 C -22 -10, -8 -14, 0 0 Z" fill="#2D6A4F"/>
  </g>
<g transform="translate(204,0) rotate(324) scale(1.6)" opacity="0.30000000000000004">
    <path d="M0 0 C 8 -14, 22 -10, 18 2 C 12 12, 0 16, 0 16 C 0 16, -12 12, -18 2 C -22 -10, -8 -14, 0 0 Z" fill="#2D6A4F"/>
  </g>
<polygon points="352,75 353.41068460550196,79.05835921350013 357.7063390977709,79.14589803375031 354.28253563910835,81.74164078649987 355.52671151375483,85.85410196624969 352,83.4 348.47328848624517,85.85410196624969 349.71746436089165,81.74164078649987 346.2936609022291,79.14589803375031 350.58931539449804,79.05835921350013" fill="#CD6A45" opacity="0.35"/>
<polygon points="348,50 350.3511410091699,56.763932022500214 357.51056516295154,56.90983005625053 351.8042260651806,61.236067977499786 353.87785252292474,68.09016994374947 348,64 342.12214747707526,68.09016994374947 344.1957739348194,61.23606797749979 338.48943483704846,56.90983005625053 345.6488589908301,56.763932022500214" fill="#CD6A45" opacity="0.35"/>
<polygon points="344,25 347.29159741283786,34.469504831500295 357.31479122813215,34.673762078750734 349.3259164912529,40.73049516849971 352.22899353209465,50.326237921249266 344,44.6 335.77100646790535,50.326237921249266 338.6740835087471,40.73049516849971 330.68520877186785,34.67376207875074 340.70840258716214,34.469504831500295" fill="#CD6A45" opacity="0.35"/>
<polygon points="340,12 341.41068460550196,16.058359213500125 345.7063390977709,16.145898033750317 342.28253563910835,18.741640786499875 343.52671151375483,22.854101966249686 340,20.4 336.47328848624517,22.854101966249686 337.71746436089165,18.741640786499875 334.2936609022291,16.145898033750317 338.58931539449804,16.058359213500125" fill="#CD6A45" opacity="0.35"/>
    
  </svg>