<svg xmlns="http://www.w3.org/2000/svg" viewBox="0 0 800 500" fill="none" role="img" aria-label="Family lifestyle scene">
  <defs>
    <linearGradient id="sky" x1="0" y1="0" x2="0" y2="1">
      <stop offset="0%" stop-color="#f3fbf6"/>
      <stop offset="100%" stop-color="#fef9eb"/>
    </linearGradient>
    <linearGradient id="hill" x1="0" y1="0" x2="800" y2="0">
      <stop offset="0%" stop-color="#bce9cc"/>
      <stop offset="100%" stop-color="#8fd9aa"/>
    </linearGradient>
  </defs>
  <rect width="800" height="500" fill="url(#sky)"/>
  <ellipse cx="400" cy="420" rx="460" ry="120" fill="url(#hill)" opacity="0.55"/>
  <ellipse cx="120" cy="380" rx="80" ry="100" fill="#3da764" opacity="0.25"/>
  <ellipse cx="680" cy="360" rx="90" ry="110" fill="#3da764" opacity="0.22"/>
  <circle cx="650" cy="90" r="48" fill="#fdf2d5" opacity="0.85"/>
  <path d="M320 360c0-70 45-120 100-120s100 50 100 120" fill="#f8e5d7"/>
  <circle cx="420" cy="210" r="42" fill="#f8e5d7"/>
  <circle cx="360" cy="250" r="36" fill="#cd6a45" opacity="0.35"/>
  <path d="M300 360h240c-8 40-52 70-120 70s-112-30-120-70z" fill="#cd6a45" opacity="0.28"/>
  <path d="M390 252c-18 8-28 24-28 42h20c0-12 8-22 18-26-6-4-10-10-10-16z" fill="#2f8450" opacity="0.2"/>
</svg>
