<svg xmlns="http://www.w3.org/2000/svg" viewBox="0 0 640 800" fill="none" role="img" aria-label="Gentle science and care">
  <defs>
    <linearGradient id="bg2" x1="0" y1="0" x2="640" y2="800">
      <stop offset="0%" stop-color="#fef9eb"/>
      <stop offset="55%" stop-color="#f3fbf6"/>
      <stop offset="100%" stop-color="#dff5e7"/>
    </linearGradient>
  </defs>
  <rect width="640" height="800" fill="url(#bg2)"/>
  <circle cx="520" cy="140" r="90" fill="#f8e5d7" opacity="0.45"/>
  <rect x="180" y="520" width="280" height="180" rx="28" fill="white" fill-opacity="0.65"/>
  <path d="M240 620h160M240 580h120M240 660h100" stroke="#8fd9aa" stroke-width="8" stroke-linecap="round" opacity="0.5"/>
  <circle cx="320" cy="340" r="110" fill="white" fill-opacity="0.75"/>
  <path d="M320 250c-36 0-66 28-70 64-22 8-38 28-38 52 0 30 24 54 54 54h108c30 0 54-24 54-54 0-24-16-44-38-52-4-36-34-64-70-64z" fill="#cd6a45" opacity="0.22"/>
  <circle cx="290" cy="320" r="18" fill="#f8e5d7"/>
  <circle cx="350" cy="320" r="18" fill="#f8e5d7"/>
  <path d="M300 370c20 16 40 16 60 0" stroke="#2f8450" stroke-width="6" stroke-linecap="round" opacity="0.35"/>
  <path d="M420 430c30-40 70-60 110-50" stroke="#3da764" stroke-width="10" stroke-linecap="round" opacity="0.35"/>
  <ellipse cx="430" cy="430" rx="34" ry="18" fill="#8fd9aa" opacity="0.45" transform="rotate(-20 430 430)"/>
</svg>
